<mxfile host="app.diagrams.net" modified="2020-07-09T07:31:30.467Z" agent="5.0 (Macintosh; Intel Mac OS X 10_14_5) AppleWebKit/537.36 (KHTML, like Gecko) Chrome/83.0.4103.116 Safari/537.36" etag="KdYQM5bBZHQTAp_mYLwq" version="13.3.0" type="github">
  <diagram id="gOxjWqndbTgd0gdppwYL" name="Page-1">
    <mxGraphModel dx="1186" dy="741" grid="1" gridSize="10" guides="1" tooltips="1" connect="1" arrows="1" fold="1" page="1" pageScale="1" pageWidth="827" pageHeight="1169" math="0" shadow="0">
      <root>
        <mxCell id="0" />
        <mxCell id="1" parent="0" />
        <mxCell id="EHD3b7K-IgmZufrtEBsW-1" value="台灣中小企業銀行專案" style="rounded=0;whiteSpace=wrap;html=1;fontSize=15;" vertex="1" parent="1">
          <mxGeometry x="20" y="30" width="220" height="30" as="geometry" />
        </mxCell>
        <mxCell id="EHD3b7K-IgmZufrtEBsW-2" value="損益支付" style="text;html=1;strokeColor=none;fillColor=none;align=center;verticalAlign=middle;whiteSpace=wrap;rounded=0;fontSize=15;" vertex="1" parent="1">
          <mxGeometry x="40" y="80" width="100" height="30" as="geometry" />
        </mxCell>
        <mxCell id="EHD3b7K-IgmZufrtEBsW-3" value="資料搜集表單" style="text;html=1;strokeColor=none;fillColor=none;align=center;verticalAlign=middle;whiteSpace=wrap;rounded=0;fontSize=15;" vertex="1" parent="1">
          <mxGeometry x="40" y="130" width="100" height="30" as="geometry" />
        </mxCell>
        <mxCell id="EHD3b7K-IgmZufrtEBsW-4" value="調整分錄" style="text;html=1;strokeColor=none;fillColor=none;align=center;verticalAlign=middle;whiteSpace=wrap;rounded=0;fontSize=15;" vertex="1" parent="1">
          <mxGeometry x="40" y="180" width="100" height="30" as="geometry" />
        </mxCell>
        <mxCell id="EHD3b7K-IgmZufrtEBsW-5" value="目錄訪問權限調整&lt;br&gt;需要&lt;br&gt;歷史調整記錄&lt;br&gt;&lt;br&gt;權限處長審核放行" style="text;html=1;strokeColor=none;fillColor=none;align=center;verticalAlign=middle;whiteSpace=wrap;rounded=0;fontSize=15;" vertex="1" parent="1">
          <mxGeometry x="180" y="310" width="420" height="30" as="geometry" />
        </mxCell>
        <mxCell id="EHD3b7K-IgmZufrtEBsW-6" value="財報鄉里審核" style="text;html=1;strokeColor=none;fillColor=none;align=center;verticalAlign=middle;whiteSpace=wrap;rounded=0;fontSize=15;" vertex="1" parent="1">
          <mxGeometry x="40" y="230" width="100" height="30" as="geometry" />
        </mxCell>
      </root>
    </mxGraphModel>
  </diagram>
</mxfile>
